# xmcd
#
# Track frame offsets: 
#        150
#        24237
#        52962
#        77450
#        89632
#        106115
#        125307
#        142927
#        167007
#
# Disc length: 2451 seconds
#
# Revision: 0
# Processed by: cddbd v1.5.2PL0 Copyright (c) Steve Scherf et al.
# Submitted via: ExactAudioCopy v0.95b3
#
DISCID=60099109
DTITLE=Robin Trower  - Twice Removed From Yesterday  FLAC
DYEAR=1900
DGENRE=
TTITLE0=I Can't Wait Much Longer
TTITLE1=Daydream
TTITLE2=Hannah
TTITLE3=Man Of The World
TTITLE4=I Can't Stand It
TTITLE5=Rock Me Baby Right
TTITLE6=Twice Removed From Yesterday
TTITLE7=Sinner's Song
TTITLE8=Ballerina
EXTD=
EXTT0=
EXTT1=
EXTT2=
EXTT3=
EXTT4=
EXTT5=
EXTT6=
EXTT7=
EXTT8=
PLAYORDER=
